Coordinates
version=1
nRows=9
nColumns=24
inDegrees=yes

Units are S.I. units (second, meters, Newtons, ...)
Angles are in degrees.

endheader
time	pelvis_tilt	pelvis_list	pelvis_rotation	pelvis_tx	pelvis_ty	pelvis_tz	hip_flexion_r	hip_adduction_r	hip_rotation_r	knee_angle_r	ankle_angle_r	subtalar_angle_r	mtp_angle_r	hip_flexion_l	hip_adduction_l	hip_rotation_l	knee_angle_l	ankle_angle_l	subtalar_angle_l	mtp_angle_l	lumbar_extension	lumbar_bending	lumbar_rotation
      3.98000000	     -8.45494349	     -6.00581446	      4.96893486	     -1.49423766	     -0.00151567	     -0.25737745	     13.29695823	     10.26935091	      2.52723332	    -13.04444254	      0.84426038	     -2.63006467	     13.58228800	     24.92549920	     -8.48897775	     -0.18438847	    -63.12410176	    -14.40870974	     -4.97716874	     22.31960346	      7.39982144	      5.33809254	     -0.00985640
      3.98500000	     -8.45776231	     -5.77061724	      4.73694652	     -1.48953531	     -0.00104104	     -0.25677505	     12.79610537	     10.12250529	      2.79812021	    -12.78339201	      1.03481057	     -2.48728187	     13.51310193	     25.47676196	     -8.24864077	     -0.48097472	    -62.78843563	    -13.81646418	     -4.88364139	     22.51819027	      7.30514285	      5.13292704	      0.44049235
      3.99000000	     -8.49230639	     -5.53683453	      4.62372976	     -1.48484083	     -0.00063252	     -0.25633013	     12.31376933	      9.93796561	      2.97469222	    -12.46991612	      1.19981010	     -2.39384268	     13.50232278	     26.08360224	     -7.93117339	     -0.63026168	    -62.39931633	    -13.31293337	     -4.82556283	     22.68030389	      7.26351593	      4.89512686	      0.73349617
      3.99500000	     -8.47191699	     -5.31193491	      4.39489076	     -1.48015118	     -0.00024591	     -0.25575128	     11.77993217	      9.78967986	      3.20281980	    -12.17891024	      1.42402454	     -2.21860513	     13.51192022	     26.58522766	     -7.70850019	     -0.92138691	    -61.94840407	    -12.75863437	     -4.68021408	     22.89154185	      7.15132147	      4.70625174	      1.18224640
      4.00000000	     -8.46429955	     -5.09507125	      4.23166911	     -1.47548559	      0.00009214	     -0.25527497	     11.25432541	      9.62706166	      3.37855613	    -11.86044522	      1.61913448	     -2.07042489	     13.53348603	     27.10509897	     -7.44383217	     -1.11666879	    -61.44073785	    -12.25904238	     -4.57284266	     23.06773603	      7.06034536	      4.50728417	      1.54155643
      4.00500000	     -8.45734396	     -4.89158261	      4.07090961	     -1.47084260	      0.00037005	     -0.25482531	     10.73360533	      9.47271870	      3.54012066	    -11.53929037	      1.80642964	     -1.92697114	     13.58158174	     27.61448428	     -7.18747341	     -1.29399758	    -60.88000484	    -11.77260905	     -4.47051788	     23.23013031	      6.97095241	      4.32207254	      1.89043507
      4.01000000	     -8.47073489	     -4.69331368	      3.93816808	     -1.46620760	      0.00057081	     -0.25443403	     10.23434783	      9.31335465	      3.68342615	    -11.20881567	      1.99207749	     -1.82480059	     13.63833558	     28.14130874	     -6.91223333	     -1.42274228	    -60.26971512	    -11.32770045	     -4.37431960	     23.36185717	      6.91076756	      4.14078911	      2.20605736
      4.01500000	     -8.44746665	     -4.51061875	      3.74950244	     -1.46158352	      0.00075937	     -0.25399750	      9.70402392	      9.17979139	      3.85792430	    -10.89328871	      2.16980919	     -1.68558043	     13.71625549	     28.59481530	     -6.68664878	     -1.59307206	    -59.59703603	    -10.86008571	     -4.27125399	     23.48862061	      6.80434950	      3.98911931	      2.58237758
      4.02000000	     -8.40381674	     -4.34989245	      3.55781546	     -1.45697983	      0.00091983	     -0.25357498	      9.15813597	      9.06829727	      4.03407253	    -10.58102641	      2.32100533	     -1.55982432	     13.79220351	     29.01167152	     -6.48311621	     -1.74547863	    -58.87138165	    -10.40976102	     -4.20851776	     23.57071361	      6.67419267	      3.86018242	      2.95464483
